<svg height="512pt" viewBox="0 -7 512 512" width="512pt" xmlns="http://www.w3.org/2000/svg"><path d="m428.492188 164.976562c-4.007813 0-7.957032-1.683593-10.765626-4.882812l-37.277343-41.488281c-2.851563-3.175781-2.589844-8.058594.582031-10.910157 3.175781-2.851562 8.0625-2.589843 10.914062.582032l36.765626 40.917968 14.167968-8.59375c3.648438-2.214843 8.398438-1.050781 10.613282 2.597657 2.210937 3.648437 1.046874 8.402343-2.597657 10.613281l-14.960937 9.074219c-2.320313 1.40625-4.894532 2.089843-7.441406 2.089843zm0 0" fill="#a8d3d8"/><path d="m466.507812 112.195312c-3.710937 0-6.988281-2.683593-7.613281-6.464843l-2.714843-16.332031-51.0625-.242188c-4.265626-.019531-7.707032-3.496094-7.6875-7.765625.019531-4.253906 3.476562-7.6875 7.726562-7.6875h.035156l52.007813.246094c7.011719.039062 12.925781 5.082031 14.070312 11.988281l2.867188 17.261719c.699219 4.210937-2.148438 8.1875-6.355469 8.886719-.429688.074218-.855469.109374-1.273438.109374zm-9.386718-22.792968h.007812zm0 0" fill="#a8d3d8"/><path d="m406.277344 462.714844h-190.523438l34.222656-101.28125c8.847657-26.179688 33.40625-43.804688 61.039063-43.804688s52.1875 17.625 61.035156 43.804688zm0 0" fill="#deecf1"/><path d="m372.050781 361.433594c-8.84375-26.179688-33.402343-43.804688-61.035156-43.804688-5.398437 0-10.671875.683594-15.738281 1.960938 20.875 5.265625 38.164062 20.78125 45.28125 41.84375l34.226562 101.28125h31.488282zm0 0" fill="#a8d3d8"/><path d="m476.367188 432.953125h-320.6875c-19.679688 0-35.632813 15.953125-35.632813 35.632813v17.851562c0 6.023438 4.882813 10.90625 10.90625 10.90625h370.140625c6.023438 0 10.90625-4.882812 10.90625-10.90625v-17.851562c0-19.679688-15.953125-35.632813-35.632812-35.632813zm0 0" fill="#ff9838"/><path d="m512 486.4375v-17.851562c0-19.679688-15.953125-35.632813-35.632812-35.632813h-23.585938c15.605469 0 28.253906 12.648437 28.253906 28.253906v36.136719h20.058594c6.023438 0 10.90625-4.882812 10.90625-10.90625zm0 0" fill="#ff8709"/><path d="m283.917969 61.332031-193.128907 138.050781-55.683593-98.550781 217.910156-94.195312zm0 0" fill="#deecf1"/><path d="m381.917969 119.335938-131.363281-44.667969c-21.355469-7.261719-31.863282-31.296875-22.6875-51.90625 9.191406-20.648438 34.160156-28.90625 53.855468-17.8125l120.820313 68.058593zm0 0" fill="#7ca1b1"/><path d="m387.613281 62.390625-23.203125 52.121094c-2.203125 4.949219.320313 10.722656 5.449219 12.464843l14.394531 4.894532c4.507813 1.535156 9.441406-.625 11.378906-4.972656l22.058594-49.554688c1.933594-4.339844.246094-9.433594-3.890625-11.765625l-13.253906-7.464844c-4.730469-2.664062-10.722656-.683593-12.933594 4.277344zm0 0" fill="#ff8709"/><path d="m81.347656 121.472656-37.488281 53.691406 217.03125 200.84375c32.882813 30.433594 85.070313 24.8125 110.71875-11.921874 25.652344-36.738282 12.949219-87.664063-26.945313-108.054688zm0 0" fill="#8ebac5"/><path d="m344.664062 256.03125-263.316406-134.558594-14.042968 20.113282 245.867187 125.644531c39.898437 20.386719 52.597656 71.316406 26.949219 108.050781-5.730469 8.207031-12.792969 14.839844-20.65625 19.886719 20.179687-2.304688 39.425781-12.863281 52.148437-31.082031 25.648438-36.738282 12.949219-87.664063-26.949219-108.054688zm0 0" fill="#7ca1b1"/><path d="m127.449219 150.308594c0 35.195312-28.53125 63.726562-63.722657 63.726562-35.195312 0-63.726562-28.53125-63.726562-63.726562 0-35.195313 28.53125-63.722656 63.726562-63.722656 35.191407 0 63.722657 28.527343 63.722657 63.722656zm0 0" fill="#ff8709"/><g fill="#deecf1"><path d="m88.742188 150.308594c0 13.816406-11.203126 25.015625-25.015626 25.015625-13.816406 0-25.015624-11.199219-25.015624-25.015625s11.199218-25.015625 25.015624-25.015625c13.8125 0 25.015626 11.199219 25.015626 25.015625zm0 0"/><path d="m342.957031 321.957031c0 17.527344-14.207031 31.734375-31.734375 31.734375s-31.734375-14.207031-31.734375-31.734375c0-17.527343 14.207031-31.734375 31.734375-31.734375s31.734375 14.207032 31.734375 31.734375zm0 0"/></g></svg>